<svg width="25" height="24" viewBox="0 0 25 24" fill="none" xmlns="http://www.w3.org/2000/svg">
<path d="M18 17.25H7.29545L4.68015 2.86584C4.64873 2.69303 4.55766 2.53673 4.42281 2.42419C4.28796 2.31164 4.11789 2.25 3.94225 2.25H2.25" stroke="#093A6C" stroke-width="2" stroke-linecap="round" stroke-linejoin="round"/>
<path d="M8.25 21C9.28553 21 10.125 20.1605 10.125 19.125C10.125 18.0895 9.28553 17.25 8.25 17.25C7.21447 17.25 6.375 18.0895 6.375 19.125C6.375 20.1605 7.21447 21 8.25 21Z" stroke="#093A6C" stroke-width="2" stroke-linecap="round" stroke-linejoin="round"/>
<path d="M18 21C19.0355 21 19.875 20.1605 19.875 19.125C19.875 18.0895 19.0355 17.25 18 17.25C16.9645 17.25 16.125 18.0895 16.125 19.125C16.125 20.1605 16.9645 21 18 21Z" stroke="#093A6C" stroke-width="2" stroke-linecap="round" stroke-linejoin="round"/>
<path d="M6.61363 13.5H18.3845C18.7358 13.5 19.0759 13.3767 19.3456 13.1516C19.6153 12.9265 19.7975 12.6139 19.8603 12.2683L21 6H5.25" stroke="#093A6C" stroke-width="2" stroke-linecap="round" stroke-linejoin="round"/>
</svg>
